<svg xmlns="http://www.w3.org/2000/svg" width="600" height="688" viewBox="0 0 600 688">
<g>
<path d="M 149.50 597.73 L 0.50 516.46 L 0.50 162.75 L 150.25 81.37 L 300.00 0.00 L 449.75 81.38 L 599.50 162.75 L 599.10 261.13 C598.88,315.23 598.43,394.79 598.10,437.93 L 597.50 516.36 L 448.50 597.66 C366.55,642.38 299.27,678.97 299.00,678.98 C298.73,678.99 231.45,642.43 149.50,597.73 ZM 173.75 554.19 C241.81,591.41 298.10,621.90 298.84,621.93 C299.57,621.97 355.88,591.61 423.96,554.48 L 547.76 486.95 L 548.37 408.23 C548.71,364.93 549.25,298.67 549.57,261.00 L 550.16 192.50 L 426.33 125.31 C358.22,88.35 301.70,57.81 300.72,57.44 C299.48,56.97 261.87,76.98 174.48,124.63 L 50.01 192.50 L 50.01 339.51 L 50.00 486.51 Z" fill="rgba(0,0,0,1)"/>
<path d="M 550.16 192.87 L 546.85 194.57 C545.01,195.51 488.73,225.92 421.79,262.14 C354.86,298.36 299.69,328.00 299.21,328.00 C298.73,328.00 242.64,297.62 174.59,260.50 C106.53,223.38 50.65,193.00 50.42,193.00 C50.22,193.00 50.05,243.90 50.01,310.94 L 50.01 192.50 L 174.48 124.63 C261.87,76.98 299.48,56.97 300.72,57.44 C301.70,57.81 358.22,88.35 426.33,125.31 L 550.16 192.50 L 550.16 192.87 Z" fill="rgba(0,132,192,1)"/>
<path d="M 298.29 621.69 C298.69,617.29 299.00,553.08 299.00,475.18 L 299.00 328.36 L 207.42 278.39 C259.79,306.91 298.81,328.00 299.21,328.00 C299.69,328.00 354.86,298.36 421.79,262.14 C488.73,225.92 545.01,195.51 546.85,194.57 L 550.20 192.84 L 549.60 261.17 C549.26,298.75 548.71,364.93 548.37,408.23 L 547.76 486.95 L 423.96 554.48 C355.88,591.61 299.57,621.97 298.84,621.93 C298.80,621.93 298.62,621.85 298.29,621.69 ZM 50.42 193.00 C50.43,193.00 50.59,193.08 50.88,193.23 C50.35,195.41 50.00,253.61 50.00,339.38 C50.00,258.83 50.19,193.00 50.42,193.00 Z" fill="rgba(0,210,184,1)"/>
<path d="M 173.75 554.19 L 50.00 486.51 L 50.00 339.67 C50.00,251.93 50.37,192.97 50.91,193.17 C51.41,193.35 107.43,223.84 175.41,260.93 L 299.00 328.36 L 299.00 475.18 C299.00,555.93 298.66,621.97 298.25,621.93 C297.84,621.90 241.81,591.41 173.75,554.19 Z" fill="rgba(129,236,222,1)"/>
</g>
</svg>