<svg xmlns="http://www.w3.org/2000/svg" width="1024" height="1024" viewBox="0 0 1024 1024">
<g>
<path d="M 570.16 829.28 C548.46,821.12 509.75,801.08 487.50,785.95 C435.66,750.68 416.40,712.51 431.74,675.50 C442.75,648.96 474.80,622.27 518.00,603.66 C541.43,593.57 560.66,587.93 602.00,579.01 C698.17,558.27 740.21,540.62 749.01,517.30 C753.73,504.79 749.17,492.96 732.97,475.66 C727.39,469.70 721.97,462.95 720.93,460.66 C718.53,455.36 718.51,447.65 720.90,442.50 C726.64,430.10 747.53,417.50 780.80,406.38 C794.19,401.90 831.72,392.00 835.31,392.00 C836.72,392.00 837.02,394.38 836.89,441.05 L 832.83 442.60 C830.45,443.50 823.49,446.61 817.36,449.51 C788.14,463.32 777.69,477.40 785.18,492.87 C786.38,495.35 791.31,501.53 796.14,506.59 C810.86,522.04 815.98,532.10 814.68,543.04 C813.09,556.47 801.37,567.87 777.79,578.93 C753.71,590.22 724.47,598.51 657.55,613.01 C617.95,621.60 592.41,630.11 566.08,643.50 C525.09,664.34 499.64,689.93 492.54,717.46 C490.57,725.09 490.56,739.88 492.53,747.54 C498.72,771.63 518.01,794.27 553.37,818.94 C560.98,824.24 565.76,827.28 570.16,829.28 ZM 835.11 578.85 C834.30,588.26 833.02,594.50 830.92,604.89 C833.03,594.48 834.31,587.82 835.11,578.85 Z" fill="rgba(6,68,121,1)"/>
<path d="M 580.32 832.50 C571.30,830.54 566.62,828.18 553.37,818.94 C518.01,794.27 498.72,771.63 492.53,747.54 C490.56,739.88 490.57,725.09 492.54,717.46 C499.64,689.93 525.09,664.34 566.08,643.50 C592.41,630.11 617.95,621.60 657.55,613.01 C724.47,598.51 753.71,590.22 777.79,578.93 C801.37,567.87 813.09,556.47 814.68,543.04 C815.98,532.10 810.86,522.04 796.14,506.59 C791.31,501.53 786.38,495.35 785.18,492.87 C777.69,477.40 788.14,463.32 817.36,449.51 C823.49,446.61 830.45,443.50 832.83,442.60 L 837.16 440.95 L 836.73 506.73 C836.26,576.40 836.09,579.37 830.92,604.89 C811.57,700.50 743.54,781.95 652.50,818.51 C619.41,831.80 597.05,836.13 580.32,832.50 Z" fill="rgba(7,86,160,1)"/>
<path d="M 213.29 580.61 C202.90,577.21 194.77,570.01 190.14,560.12 L 187.50 554.50 L 187.50 508.00 C187.50,457.83 187.93,451.41 193.01,425.95 C210.62,337.67 268.86,261.51 349.62,221.17 C377.71,207.13 405.65,198.33 439.50,192.84 L 453.50 190.57 L 645.25 190.25 L 837.00 189.94 L 837.00 273.93 L 837.00 357.91 L 833.75 358.40 C831.96,358.67 821.50,359.62 810.50,360.51 C751.96,365.25 677.49,375.81 633.51,385.62 C570.28,399.71 544.40,417.92 556.92,439.50 C561.01,446.56 566.65,451.65 580.98,461.23 C599.11,473.34 601.58,478.16 593.93,486.45 C577.42,504.37 499.26,525.91 356.00,552.02 C300.12,562.21 270.86,568.87 245.50,577.17 C231.65,581.70 220.30,582.91 213.29,580.61 Z" fill="rgba(65,208,253,1)"/>
</g>
</svg>